<?xml version="1.0" encoding="UTF-8" standalone="no"?><!DOCTYPE svg PUBLIC "-//W3C//DTD SVG 1.1//EN" "http://www.w3.org/Graphics/SVG/1.1/DTD/svg11.dtd"><svg width="100%" height="100%" viewBox="0 0 3200 1969" version="1.1" xmlns="http://www.w3.org/2000/svg" xmlns:xlink="http://www.w3.org/1999/xlink" xml:space="preserve" xmlns:serif="http://www.serif.com/" style="fill-rule:evenodd;clip-rule:evenodd;stroke-linejoin:round;stroke-miterlimit:2;"><g><g><path d="M2913.26,402.484l-0,1163.97c-0,89.202 -72.421,161.623 -161.624,161.623l-2295.63,0c-89.202,0 -161.623,-72.421 -161.623,-161.623l-0,-1163.97c-0,-89.203 72.421,-161.624 161.623,-161.624l2295.63,0c89.203,0 161.624,72.421 161.624,161.624Zm-62.5,-0c-0,-54.708 -44.416,-99.124 -99.124,-99.124l-2295.63,0c-54.708,0 -99.123,44.416 -99.123,99.124l-0,1163.97c-0,54.708 44.415,99.123 99.123,99.123l2295.63,0c54.708,0 99.124,-44.415 99.124,-99.123l-0,-1163.97Z" style="fill:#155dfc;"/><path d="M573.82,240.86l0,1487.22l-137.634,0c-75.963,0 -137.635,-61.671 -137.635,-137.634l0,-1211.95c0,-75.963 61.672,-137.635 137.635,-137.635l137.634,0Zm-62.5,62.5l-75.134,0c-41.468,0 -75.135,33.667 -75.135,75.135l0,1211.95c0,41.468 33.667,75.134 75.135,75.134l75.134,0l0,-1362.22Z" style="fill:#155dfc;"/><path d="M2913.26,420.55l-0,1127.84c-0,99.173 -80.516,179.689 -179.69,179.689l-179.689,0l-0,-1487.22l179.689,0c99.174,0 179.69,80.516 179.69,179.69Zm-62.5,-0c-0,-64.679 -52.511,-117.19 -117.19,-117.19l-117.189,0l-0,1362.22l117.189,0c64.679,0 117.19,-52.51 117.19,-117.189l-0,-1127.84Z" style="fill:#155dfc;"/><g><path d="M2815.77,804.779l0,359.379c0,41.146 -33.405,74.552 -74.552,74.552c-41.146,-0 -74.552,-33.406 -74.552,-74.552l0,-359.379c0,-41.146 33.406,-74.552 74.552,-74.552c41.147,-0 74.552,33.406 74.552,74.552Zm-32.627,-0c-0,-23.139 -18.786,-41.925 -41.925,-41.925c-23.138,0 -41.924,18.786 -41.924,41.925l-0,359.379c-0,23.138 18.786,41.924 41.924,41.924c23.139,0 41.925,-18.786 41.925,-41.924l-0,-359.379Z" style="fill:#155dfc;"/><path d="M438.839,937.506c25.919,-0 46.962,21.043 46.962,46.962c0,25.92 -21.043,46.963 -46.962,46.963c-25.92,0 -46.963,-21.043 -46.963,-46.963c-0,-25.919 21.043,-46.962 46.963,-46.962Zm-0,32.627c-7.912,0 -14.336,6.424 -14.336,14.335c0,7.912 6.424,14.336 14.336,14.336c7.911,-0 14.335,-6.424 14.335,-14.336c-0,-7.911 -6.424,-14.335 -14.335,-14.335Z" style="fill:#155dfc;"/></g></g><g><g><path d="M2387.58,545.45l-0,879.709c-0,67.418 -54.735,122.153 -122.153,122.153l-1434.07,-0c-67.418,-0 -122.153,-54.735 -122.153,-122.153l0,-879.709c0,-67.418 54.735,-122.152 122.153,-122.152l1434.07,-0c67.418,-0 122.153,54.734 122.153,122.152Zm-62.5,-0c-0,-32.923 -26.73,-59.652 -59.653,-59.652l-1434.07,-0c-32.923,-0 -59.653,26.729 -59.653,59.652l0,879.709c0,32.923 26.73,59.653 59.653,59.653l1434.07,-0c32.923,-0 59.653,-26.73 59.653,-59.653l-0,-879.709Z" style="fill:#155dfc;"/><path d="M2387.58,543.967l-0,122.341l-1678.38,0l0,-122.341c0,-67.523 54.82,-122.342 122.342,-122.342l1433.69,-0c67.522,-0 122.342,54.819 122.342,122.342Zm-62.5,-0c-0,-33.028 -26.815,-59.842 -59.842,-59.842l-1433.69,-0c-33.027,-0 -59.842,26.814 -59.842,59.842l0,59.841l1553.38,0l-0,-59.841Z" style="fill:#155dfc;"/></g><g><path d="M1166.19,995.181l-176.992,-238.192l294.776,34.184l753.12,434.813l-117.785,204.008l-753.119,-434.813Zm24.203,-27.172l715.874,413.31l82.151,-142.29l-715.874,-413.31l-205.598,-23.842l123.447,166.132Z" style="fill:#155dfc;"/><path d="M995.206,760.458l300.29,37.368l-117.784,204.008l-182.506,-241.376Zm72.595,41.913l106.259,140.534l68.576,-118.778l-174.835,-21.756Z" style="fill:#155dfc;"/><path d="M1886.81,1371.4l83.286,-144.255c28.881,-8.831 59.278,-5.611 84.503,8.953c52.494,30.307 68.723,100.619 36.22,156.917c-32.504,56.297 -101.51,77.398 -154.004,47.091c-25.225,-14.564 -43.213,-39.278 -50.005,-68.706Zm38.672,4.286c5.928,14.165 16.007,25.973 29.149,33.561c36.083,20.832 82.987,4.648 105.329,-34.049c22.341,-38.697 12.905,-87.409 -23.178,-108.241c-13.141,-7.587 -28.406,-10.413 -43.64,-8.463l-67.66,117.192Z" style="fill:#155dfc;"/></g><rect x="1948.55" y="506.81" width="72.64" height="74.313" style="fill:#155dfc;"/><rect x="2075.64" y="506.81" width="72.64" height="74.313" style="fill:#155dfc;"/><rect x="2202.72" y="506.81" width="72.64" height="74.313" style="fill:#155dfc;"/><g transform="matrix(346.438,0,0,346.438,2267.28,979.224)"></g><text x="1760.82px" y="979.224px" style="font-family:'Impact', sans-serif;font-stretch:condensed;font-size:346.438px;fill:#155dfc;">&lt;/&gt;</text></g></g><rect x="0" y="0" width="3200" height="1968.94" style="fill:none;"/></svg>