<?xml version="1.0" encoding="UTF-8" standalone="no"?><!DOCTYPE svg PUBLIC "-//W3C//DTD SVG 1.1//EN" "http://www.w3.org/Graphics/SVG/1.1/DTD/svg11.dtd"><svg width="100%" height="100%" viewBox="0 0 1518 1264" version="1.1" xmlns="http://www.w3.org/2000/svg" xmlns:xlink="http://www.w3.org/1999/xlink" xml:space="preserve" xmlns:serif="http://www.serif.com/" style="fill-rule:evenodd;clip-rule:evenodd;stroke-linejoin:round;stroke-miterlimit:2;"><g><g><path d="M1466.08,192.72l0,879.709c0,67.418 -54.734,122.153 -122.152,122.153l-1154.07,-0c-67.417,-0 -122.152,-54.735 -122.152,-122.153l-0,-879.709c-0,-67.418 54.735,-122.153 122.152,-122.153l1154.07,0c67.418,0 122.152,54.735 122.152,122.153Zm-50.437,-0c0,-39.581 -32.134,-71.715 -71.715,-71.715l-1154.07,-0c-39.58,-0 -71.715,32.134 -71.715,71.715l0,879.709c0,39.581 32.135,71.716 71.715,71.716l1154.07,-0c39.581,-0 71.715,-32.135 71.715,-71.716l0,-879.709Z" style="fill:#4d95cf;"/><path d="M1466.08,191.236l0,122.342l-1398.38,0l-0,-122.342c-0,-67.522 54.819,-122.341 122.342,-122.341l1153.69,-0c67.522,-0 122.341,54.819 122.341,122.341Zm-50.437,0c0,-39.685 -32.219,-71.904 -71.904,-71.904l-1153.69,-0c-39.686,-0 -71.905,32.219 -71.905,71.904l0,71.905l1297.5,0l0,-71.905Z" style="fill:#4d95cf;"/></g><g><path d="M334.563,664.776l-130.197,-175.216l216.84,25.146l554,319.852l-86.643,150.07l-554,-319.852Zm24.203,-27.172l516.755,298.349l51.01,-88.352l-516.755,-298.349l-127.662,-14.804l76.652,103.156Z" style="fill:#4d95cf;"/><path d="M208.786,492.112l220.896,27.488l-86.643,150.07l-134.253,-177.558Zm72.595,41.913l58.006,76.716l37.435,-64.84l-95.441,-11.876Z" style="fill:#4d95cf;"/><path d="M864.66,941.525l61.266,-106.116c21.245,-6.496 43.605,-4.127 62.161,6.586c38.615,22.294 50.553,74.016 26.644,115.429c-23.91,41.413 -74.672,56.935 -113.287,34.641c-18.556,-10.713 -31.787,-28.893 -36.784,-50.54Zm39.082,3.574c3.636,6.704 8.922,12.299 15.519,16.107c22.206,12.821 50.861,2.217 64.611,-21.598c13.749,-23.815 8.605,-53.933 -13.601,-66.754c-6.597,-3.808 -14.084,-5.589 -21.709,-5.386l-44.82,77.631Z" style="fill:#4d95cf;"/></g><rect x="1027.06" y="154.08" width="72.64" height="74.313" style="fill:#4d95cf;"/><rect x="1154.14" y="154.08" width="72.64" height="74.313" style="fill:#4d95cf;"/><rect x="1281.22" y="154.08" width="72.64" height="74.313" style="fill:#4d95cf;"/><g transform="matrix(346.438,0,0,346.438,1280.29,658.842)"></g><text x="773.824px" y="658.842px" style="font-family:'Impact', sans-serif;font-stretch:condensed;font-size:346.438px;fill:#4d95cf;">&lt;/&gt;</text></g></svg>