<?xml version="1.0" encoding="UTF-8" standalone="no"?><!DOCTYPE svg PUBLIC "-//W3C//DTD SVG 1.1//EN" "http://www.w3.org/Graphics/SVG/1.1/DTD/svg11.dtd"><svg width="100%" height="100%" viewBox="0 0 2751 1630" version="1.1" xmlns="http://www.w3.org/2000/svg" xmlns:xlink="http://www.w3.org/1999/xlink" xml:space="preserve" xmlns:serif="http://www.serif.com/" style="fill-rule:evenodd;clip-rule:evenodd;stroke-linejoin:round;stroke-miterlimit:2;"><g><g><path d="M2690.75,218.971l-0,1163.97c-0,89.203 -72.421,161.624 -161.624,161.624l-2295.63,-0c-89.202,-0 -161.623,-72.421 -161.623,-161.624l-0,-1163.97c-0,-89.202 72.421,-161.623 161.623,-161.623l2295.63,-0c89.203,-0 161.624,72.421 161.624,161.623Zm-62.5,0c-0,-54.708 -44.416,-99.123 -99.124,-99.123l-2295.63,-0c-54.708,-0 -99.123,44.415 -99.123,99.123l-0,1163.97c-0,54.708 44.415,99.124 99.123,99.124l2295.63,-0c54.708,-0 99.124,-44.416 99.124,-99.124l-0,-1163.97Z" style="fill:#4d95cf;"/><path d="M351.311,57.348l0,1487.22l-137.634,-0c-75.963,-0 -137.635,-61.672 -137.635,-137.635l0,-1211.95c0,-75.962 61.672,-137.634 137.635,-137.634l137.634,-0Zm-62.5,62.5l-75.134,-0c-41.468,-0 -75.135,33.666 -75.135,75.134l0,1211.95c0,41.468 33.667,75.135 75.135,75.135l75.134,-0l0,-1362.22Z" style="fill:#4d95cf;"/><path d="M2690.75,237.037l-0,1127.84c-0,99.174 -80.516,179.69 -179.69,179.69l-179.689,-0l-0,-1487.22l179.689,-0c99.174,-0 179.69,80.516 179.69,179.689Zm-62.5,0c-0,-64.679 -52.511,-117.189 -117.19,-117.189l-117.189,-0l-0,1362.22l117.189,-0c64.679,-0 117.19,-52.511 117.19,-117.19l-0,-1127.84Z" style="fill:#4d95cf;"/><g><path d="M2584.93,621.266l0,359.379c0,41.147 -33.406,74.552 -74.552,74.552c-41.146,0 -74.552,-33.405 -74.552,-74.552l0,-359.379c0,-41.146 33.406,-74.552 74.552,-74.552c41.146,0 74.552,33.406 74.552,74.552Zm-23.811,0c-0,-28.004 -22.736,-50.74 -50.741,-50.74c-28.004,-0 -50.74,22.736 -50.74,50.74l-0,359.379c-0,28.005 22.736,50.741 50.74,50.741c28.005,-0 50.741,-22.736 50.741,-50.741l-0,-359.379Z" style="fill:#4d95cf;"/><path d="M216.33,753.993c25.919,0 46.962,21.043 46.962,46.963c0,25.919 -21.043,46.962 -46.962,46.962c-25.92,0 -46.963,-21.043 -46.963,-46.962c-0,-25.92 21.043,-46.963 46.963,-46.963Zm-0,20.205c-14.768,0 -26.758,11.99 -26.758,26.758c-0,14.768 11.99,26.758 26.758,26.758c14.768,-0 26.757,-11.99 26.757,-26.758c0,-14.768 -11.989,-26.758 -26.757,-26.758Z" style="fill:#4d95cf;"/></g></g><g><g><path d="M2165.07,361.937l-0,879.71c-0,67.418 -54.735,122.152 -122.153,122.152l-1434.07,0c-67.418,0 -122.153,-54.734 -122.153,-122.152l0,-879.71c0,-67.417 54.735,-122.152 122.153,-122.152l1434.07,-0c67.418,-0 122.153,54.735 122.153,122.152Zm-50.438,0c0,-39.58 -32.134,-71.715 -71.715,-71.715l-1434.07,0c-39.581,0 -71.715,32.135 -71.715,71.715l-0,879.71c-0,39.581 32.134,71.715 71.715,71.715l1434.07,0c39.581,0 71.715,-32.134 71.715,-71.715l0,-879.71Z" style="fill:#4d95cf;"/><path d="M2165.07,360.454l-0,122.342l-1678.38,-0l0,-122.342c0,-67.522 54.82,-122.342 122.342,-122.342l1433.69,0c67.522,0 122.342,54.82 122.342,122.342Zm-50.438,-0c0,-39.685 -32.219,-71.905 -71.904,-71.905l-1433.69,0c-39.685,0 -71.904,32.22 -71.904,71.905l-0,71.904l1577.5,0.001l0,-71.905Z" style="fill:#4d95cf;"/></g><g><path d="M943.68,811.668l-176.992,-238.191l294.776,34.183l753.12,434.814l-117.785,204.008l-753.119,-434.814Zm24.203,-27.172l715.874,413.31l82.151,-142.29l-715.873,-413.309l-205.599,-23.843l123.447,166.132Z" style="fill:#4d95cf;"/><path d="M772.697,576.946l300.29,37.367l-117.784,204.008l-182.506,-241.375Zm72.595,41.913l106.259,140.533l68.576,-118.778l-174.835,-21.755Z" style="fill:#4d95cf;"/><path d="M1664.31,1187.89l83.286,-144.256c28.881,-8.831 59.278,-5.61 84.503,8.953c52.494,30.308 68.723,100.62 36.22,156.917c-32.504,56.298 -101.51,77.399 -154.004,47.091c-25.225,-14.563 -43.213,-39.277 -50.005,-68.705Zm38.672,4.285c5.928,14.166 16.007,25.974 29.149,33.561c36.083,20.832 82.987,4.649 105.329,-34.048c22.341,-38.697 12.905,-87.409 -23.178,-108.242c-13.141,-7.587 -28.406,-10.412 -43.64,-8.463l-67.66,117.192Z" style="fill:#4d95cf;"/></g><rect x="1726.04" y="323.297" width="72.64" height="74.313" style="fill:#4d95cf;"/><rect x="1853.13" y="323.297" width="72.64" height="74.313" style="fill:#4d95cf;"/><rect x="1980.21" y="323.297" width="72.64" height="74.313" style="fill:#4d95cf;"/><g transform="matrix(346.438,0,0,346.438,2044.77,795.712)"></g><text x="1538.31px" y="795.712px" style="font-family:'Impact', sans-serif;font-stretch:condensed;font-size:346.438px;fill:#4d95cf;">&lt;/&gt;</text></g></g><rect x="0" y="0" width="2750.39" height="1629.44" style="fill:none;"/></svg>