<?xml version="1.0" encoding="UTF-8" standalone="no"?><!DOCTYPE svg PUBLIC "-//W3C//DTD SVG 1.1//EN" "http://www.w3.org/Graphics/SVG/1.1/DTD/svg11.dtd"><svg width="100%" height="100%" viewBox="0 0 1782 1264" version="1.1" xmlns="http://www.w3.org/2000/svg" xmlns:xlink="http://www.w3.org/1999/xlink" xml:space="preserve" xmlns:serif="http://www.serif.com/" style="fill-rule:evenodd;clip-rule:evenodd;stroke-linejoin:round;stroke-miterlimit:2;"><g><g><path d="M2255.57,49.754l-0,1163.97c-0,89.202 -72.421,161.623 -161.624,161.623l-2295.63,0c-89.202,0 -161.623,-72.421 -161.623,-161.623l-0,-1163.97c-0,-89.203 72.421,-161.624 161.623,-161.624l2295.63,0c89.203,0 161.624,72.421 161.624,161.624Zm-62.5,-0c-0,-54.708 -44.416,-99.124 -99.124,-99.124l-2295.63,0c-54.708,0 -99.123,44.416 -99.123,99.124l-0,1163.97c-0,54.708 44.415,99.123 99.123,99.123l2295.63,0c54.708,0 99.124,-44.415 99.124,-99.123l-0,-1163.97Z" style="fill:#4d95cf;"/></g><g><g><path d="M1729.88,192.72l0,879.709c0,67.418 -54.734,122.153 -122.152,122.153l-1434.07,-0c-67.418,-0 -122.153,-54.735 -122.153,-122.153l0,-879.709c0,-67.418 54.735,-122.153 122.153,-122.153l1434.07,0c67.418,0 122.152,54.735 122.152,122.153Zm-50.437,-0c0,-39.581 -32.134,-71.715 -71.715,-71.715l-1434.07,-0c-39.581,-0 -71.715,32.134 -71.715,71.715l-0,879.709c-0,39.581 32.134,71.716 71.715,71.716l1434.07,-0c39.581,-0 71.715,-32.135 71.715,-71.716l0,-879.709Z" style="fill:#4d95cf;"/><path d="M1729.88,191.236l0,122.342l-1678.38,0l0,-122.342c0,-67.522 54.82,-122.341 122.342,-122.341l1433.69,-0c67.522,-0 122.341,54.819 122.341,122.341Zm-50.437,0c0,-39.685 -32.219,-71.904 -71.904,-71.904l-1433.69,-0c-39.685,-0 -71.904,32.219 -71.904,71.904l-0,71.905l1577.5,0l0,-71.905Z" style="fill:#4d95cf;"/></g><g><path d="M508.492,642.451l-176.992,-238.192l294.776,34.184l753.119,434.813l-117.784,204.008l-753.119,-434.813Zm24.203,-27.172l715.874,413.31l82.151,-142.29l-715.874,-413.31l-205.598,-23.842l123.447,166.132Z" style="fill:#4d95cf;"/><path d="M337.509,407.728l300.29,37.368l-117.784,204.008l-182.506,-241.376Zm72.595,41.913l106.259,140.534l68.576,-118.778l-174.835,-21.756Z" style="fill:#4d95cf;"/><path d="M1229.12,1018.67l83.286,-144.255c28.881,-8.831 59.278,-5.611 84.503,8.953c52.494,30.307 68.723,100.619 36.22,156.917c-32.504,56.297 -101.511,77.398 -154.004,47.091c-25.225,-14.564 -43.213,-39.278 -50.005,-68.706Zm38.672,4.286c5.927,14.165 16.007,25.973 29.149,33.561c36.082,20.832 82.987,4.648 105.329,-34.049c22.341,-38.697 12.905,-87.409 -23.178,-108.241c-13.141,-7.587 -28.406,-10.413 -43.64,-8.463l-67.66,117.192Z" style="fill:#4d95cf;"/></g><rect x="1290.85" y="154.08" width="72.64" height="74.313" style="fill:#4d95cf;"/><rect x="1417.94" y="154.08" width="72.64" height="74.313" style="fill:#4d95cf;"/><rect x="1545.02" y="154.08" width="72.64" height="74.313" style="fill:#4d95cf;"/><g transform="matrix(346.438,0,0,346.438,1609.58,626.494)"></g><text x="1103.12px" y="626.494px" style="font-family:'Impact', sans-serif;font-stretch:condensed;font-size:346.438px;fill:#4d95cf;">&lt;/&gt;</text></g></g><rect x="-435.188" y="-169.217" width="2750.39" height="1629.44" style="fill:none;"/></svg>